<svg t="1623203571211" class="icon" viewBox="0 0 1024 1024" version="1.1" xmlns="http://www.w3.org/2000/svg" p-id="6588"
  width="120" height="120">
  <path d="M512 512m-512 0a512 512 0 1 0 1024 0 512 512 0 1 0-1024 0Z" fill="#E14B34" p-id="6589"></path>
  <path
    d="M453.930667 701.312v-148.437333H305.493333a49.493333 49.493333 0 0 1-49.493333-49.493334 49.493333 49.493333 0 0 1 49.493333-49.493333h148.437334V305.493333a49.493333 49.493333 0 0 1 49.493333-49.493333 49.493333 49.493333 0 0 1 49.493333 49.493333v148.437334h148.437334a49.493333 49.493333 0 0 1 49.493333 49.493333 49.493333 49.493333 0 0 1-49.493333 49.493333h-148.437334v148.437334a49.493333 49.493333 0 0 1-49.493333 49.493333 49.493333 49.493333 0 0 1-49.493333-49.536z"
    fill="#FFFFFF" p-id="6590"></path>
</svg>
