<svg t="1620916774922"
    class="icon" viewBox="0 0 1024 1024" version="1.1" xmlns="http://www.w3.org/2000/svg" p-id="9170"
    xmlns:xlink="http://www.w3.org/1999/xlink" width="200" height="200">
    <path
        d="M24.380952 496.88381C24.380952 764.440381 241.225143 981.284571 508.781714 981.284571c267.50781 0 484.352-216.84419 484.352-484.400761 0-267.50781-216.84419-484.352-484.352-484.352C241.225143 12.53181 24.380952 229.376 24.380952 496.88381"
        fill="#FF5000" p-id="9171"></path>
    <path
        d="M462.896762 433.590857V270.823619c0-25.551238 20.72381-50.078476 46.323809-54.808381 25.502476-4.729905 46.226286 12.190476 46.275048 37.692952v87.28381L462.896762 433.590857z m147.504762 228.839619V152.868571c0-11.312762-9.216-18.822095-20.577524-16.725333l-161.304381 29.793524a25.84381 25.84381 0 0 0-20.528762 24.283428v298.22781l-291.59619 291.59619c7.94819 11.02019 16.286476 21.796571 25.161143 32.134096l413.939809-413.93981v103.66781l-92.598857 92.598857v-46.470095l-54.905905 54.857142v46.470096L193.389714 864.060952c10.288762 8.825905 21.065143 17.212952 32.085334 25.161143l330.020571-329.971809v100.742095l-92.598857 92.647619v-46.518857l-54.905905 54.905905v46.470095l-120.100571 120.149333c12.775619 6.534095 25.84381 12.629333 39.204571 18.041905l228.400762-228.352v261.558857a492.007619 492.007619 0 0 0 54.905905-8.484571v-307.980191z"
        fill="#F5F6F6" p-id="9172"></path>
    <path
        d="M462.945524 864.207238l-54.905905 54.905905v51.492571c17.944381 3.803429 36.278857 6.582857 54.905905 8.289524v-114.688zM650.776381 848.749714v57.295238l39.643429 39.643429c13.409524-5.36381 26.428952-11.50781 39.204571-18.041905l-78.848-78.896762zM650.825143 529.798095v57.246476l225.133714 225.182477c8.874667-10.337524 17.212952-21.113905 25.161143-32.134096l-250.294857-250.294857zM650.825143 690.712381v57.295238l141.214476 141.214476c11.02019-7.94819 21.796571-16.335238 32.085333-25.161143l-173.299809-173.348571z"
        fill="#F5F6F6" p-id="9173"></path>
</svg>