<svg t="1623074878808" class="icon" viewBox="0 0 1024 1024" version="1.1" xmlns="http://www.w3.org/2000/svg" p-id="6748"
  width="200" height="200">
  <path d="M512 512m-512 0a512 512 0 1 0 1024 0 512 512 0 1 0-1024 0Z" fill="#32B660" p-id="6749"></path>
  <path
    d="M230.4 475.428571l512-212.114285c7.314286-3.657143 18.285714 0 21.942857 7.314285v10.971429l-128 508.342857c-3.657143 7.314286-10.971429 14.628571-18.285714 10.971429-3.657143 0-3.657143 0-7.314286-3.657143l-109.714286-91.428572c-7.314286-3.657143-14.628571-3.657143-21.942857 0l-58.514285 58.514286c-7.314286 7.314286-14.628571 7.314286-21.942858 0-3.657143-3.657143-3.657143-7.314286-3.657142-10.971428v-120.685715c0-3.657143 0-7.314286 3.657142-10.971428l230.4-230.4-274.285714 204.8c-7.314286 3.657143-14.628571 3.657143-18.285714 0l-109.714286-91.428572c-7.314286-7.314286-7.314286-18.285714-3.657143-25.6 3.657143 0 3.657143-3.657143 7.314286-3.657143z"
    fill="#fff" p-id="6750"></path>
</svg>
