<?xml version="1.0" standalone="no"?>
<!DOCTYPE svg PUBLIC "-//W3C//DTD SVG 1.1//EN" "http://www.w3.org/Graphics/SVG/1.1/DTD/svg11.dtd"><svg t="1613918973438"
  class="icon" viewBox="0 0 1024 1024" version="1.1" xmlns="http://www.w3.org/2000/svg" p-id="2446"
  xmlns:xlink="http://www.w3.org/1999/xlink" width="64" height="64">
  <defs>
    <style type="text/css"></style>
  </defs>
  <path d="M512 512m-512 0a512 512 0 1 0 1024 0 512 512 0 1 0-1024 0Z" fill="#E6531C" p-id="2447"></path>
  <path
    d="M488.841846 592.817231a39.384615 39.384615 0 0 0 51.908923-4.923077l156.593231-167.108923a39.384615 39.384615 0 1 0-57.462154-53.878154l-132.844308 141.784615-86.921846-63.172923a39.384615 39.384615 0 0 0-51.081846 4.096l-148.519384 149.504a39.384615 39.384615 0 0 0 55.847384 55.532308l124.770462-125.558154 87.709538 63.724308z"
    fill="#FFFFFF" p-id="2448"></path>
  <path
    d="M669.538462 393.846154v157.538461a39.384615 39.384615 0 0 0 78.76923 0V354.461538a39.384615 39.384615 0 0 0-39.384615-39.384615h-196.923077a39.384615 39.384615 0 0 0 0 78.769231h157.538462z"
    fill="#FFFFFF" p-id="2449"></path>
</svg>
